<svg xmlns="http://www.w3.org/2000/svg" viewBox="0 0 500 500"><g id="freepik--background-complete--inject-85"><rect x="416.78" y="398.49" width="33.12" height="0.25" style="fill:#ebebeb"></rect><rect x="322.53" y="401.21" width="8.69" height="0.25" style="fill:#ebebeb"></rect><rect x="396.59" y="389.21" width="19.19" height="0.25" style="fill:#ebebeb"></rect><rect x="52.46" y="390.89" width="43.19" height="0.25" style="fill:#ebebeb"></rect><rect x="104.56" y="390.89" width="6.33" height="0.25" style="fill:#ebebeb"></rect><rect x="131.47" y="395.11" width="93.68" height="0.25" style="fill:#ebebeb"></rect><path d="M238.4,337.8H45.3a5.71,5.71,0,0,1-5.71-5.71V60.66A5.71,5.71,0,0,1,45.3,55H238.4a5.71,5.71,0,0,1,5.71,5.71V332.09A5.71,5.71,0,0,1,238.4,337.8ZM45.3,55.2a5.47,5.47,0,0,0-5.46,5.46V332.09a5.47,5.47,0,0,0,5.46,5.46H238.4a5.47,5.47,0,0,0,5.46-5.46V60.66a5.47,5.47,0,0,0-5.46-5.46Z" style="fill:#ebebeb"></path><path d="M454.7,337.8H261.6a5.71,5.71,0,0,1-5.71-5.71V60.66A5.71,5.71,0,0,1,261.6,55H454.7a5.71,5.71,0,0,1,5.71,5.71V332.09A5.71,5.71,0,0,1,454.7,337.8ZM261.6,55.2a5.47,5.47,0,0,0-5.46,5.46V332.09a5.47,5.47,0,0,0,5.46,5.46H454.7a5.47,5.47,0,0,0,5.46-5.46V60.66a5.47,5.47,0,0,0-5.46-5.46Z" style="fill:#ebebeb"></path><rect y="382.4" width="500" height="0.25" style="fill:#ebebeb"></rect><path d="M205.06,105.41c-2.49,1-10.78-.2-10.78-.2l-.9.38a17.72,17.72,0,0,1-15.29-.69h0s-6.81.27-9-.18c-3.37-.68-8.39-.34-7.13-8.74s13.86-4.14,13.86-4.14-3.64-11.82,8.64-8.25A18.27,18.27,0,0,1,197.7,98.83S216.84,100.59,205.06,105.41Z" style="fill:#f5f5f5"></path><path d="M145.27,125.53c-2.56,1-11-.21-11-.21l-.92.39a18.07,18.07,0,0,1-15.64-.71s-2.14.09-4.44.09a30.88,30.88,0,0,1-4.79-.26,9.63,9.63,0,0,1-5.34-3c-1-.13-1.7-.23-1.7-.23l-1.45.61a28.65,28.65,0,0,1-24.76-1.12s-11,.45-14.6-.28c-5.45-1.1-13.57-5.41-11.54-19S71.5,100,71.5,100s-5.88-19.14,14-13.36a29,29,0,0,1,19.23,16.7c.66-1.27,1.85-2.06,3.93-1.71,4.49.74,6,6.15,6.54,9.93l.14.07c-.12-.42-3.49-12,8.85-8.43a18.71,18.71,0,0,1,13.56,15.59S157.32,120.6,145.27,125.53Z" style="fill:#f5f5f5"></path><path d="M445.44,127.42c-.36-3.45-1.64-9.28-6.13-10A3.08,3.08,0,0,0,435.7,119,26.62,26.62,0,0,0,418,103.62c-18.26-5.31-12.85,12.28-12.85,12.28s-18.76-10.8-20.62,1.69,5.59,16.45,10.6,17.46c3.29.67,13.42.26,13.42.26a26.34,26.34,0,0,0,22.74,1l1.34-.57s12.33,1.83,16,.31C459.86,131.51,452.36,128.79,445.44,127.42Z" style="fill:#f5f5f5"></path><path d="M450,298.85s-22.22-12.52-63.22-12.52S286.16,310,201,292.49s-154,6.17-154,6.17v-98H81.6v13.94h25.92V147l24.63-12.66v25.31h22v32.9h20.73V243.7H195v-105h25.92V90H248.5V163h22.31v33.72h35.64V101.35h25.27v19.57h9.72V81.74h32.4V181.3h16.84v-9.09H416v39.85H450Z" style="fill:#f0f0f0"></path><path d="M155.83,287.09V153H128.28V286.64C137,286.42,146.21,286.53,155.83,287.09Z" style="fill:#e6e6e6"></path><path d="M130.75,286V218.7H74.06v73.09A332.61,332.61,0,0,1,130.75,286Z" style="fill:#fff"></path><path d="M199.61,292.72V181H167.5V288A311.08,311.08,0,0,1,199.61,292.72Z" style="fill:#e6e6e6"></path><rect x="169.93" y="185.69" width="3.89" height="7.84" style="fill:#fafafa"></rect><rect x="177.72" y="185.69" width="3.89" height="7.84" style="fill:#fafafa"></rect><rect x="185.5" y="185.69" width="3.89" height="7.84" style="fill:#fafafa"></rect><rect x="193.28" y="185.69" width="3.89" height="7.84" style="fill:#fafafa"></rect><rect x="169.93" y="198.83" width="3.89" height="7.84" style="fill:#fafafa"></rect><rect x="177.72" y="198.83" width="3.89" height="7.84" style="fill:#fafafa"></rect><rect x="185.5" y="198.83" width="3.89" height="7.84" style="fill:#fafafa"></rect><rect x="193.28" y="198.83" width="3.89" height="7.84" style="fill:#fafafa"></rect><rect x="169.93" y="211.97" width="3.89" height="7.84" style="fill:#fafafa"></rect><rect x="177.72" y="211.97" width="3.89" height="7.84" style="fill:#fafafa"></rect><rect x="185.5" y="211.97" width="3.89" height="7.84" style="fill:#fafafa"></rect><rect x="193.28" y="211.97" width="3.89" height="7.84" style="fill:#fafafa"></rect><rect x="169.93" y="225.11" width="3.89" height="7.84" style="fill:#fafafa"></rect><rect x="177.72" y="225.11" width="3.89" height="7.84" style="fill:#fafafa"></rect><rect x="185.5" y="225.11" width="3.89" height="7.84" style="fill:#fafafa"></rect><rect x="193.28" y="225.11" width="3.89" height="7.84" style="fill:#fafafa"></rect><rect x="169.93" y="238.25" width="3.89" height="7.84" style="fill:#fafafa"></rect><rect x="177.72" y="238.25" width="3.89" height="7.84" style="fill:#fafafa"></rect><rect x="185.5" y="238.25" width="3.89" height="7.84" style="fill:#fafafa"></rect><rect x="193.28" y="238.25" width="3.89" height="7.84" style="fill:#fafafa"></rect><rect x="169.93" y="251.39" width="3.89" height="7.84" style="fill:#fafafa"></rect><rect x="177.72" y="251.39" width="3.89" height="7.84" style="fill:#fafafa"></rect><rect x="185.5" y="251.39" width="3.89" height="7.84" style="fill:#fafafa"></rect><rect x="193.28" y="251.39" width="3.89" height="7.84" style="fill:#fafafa"></rect><rect x="169.93" y="264.54" width="3.89" height="7.84" style="fill:#fafafa"></rect><rect x="177.72" y="264.54" width="3.89" height="7.84" style="fill:#fafafa"></rect><rect x="185.5" y="264.54" width="3.89" height="7.84" style="fill:#fafafa"></rect><rect x="193.28" y="264.54" width="3.89" height="7.84" style="fill:#fafafa"></rect><rect x="169.93" y="277.68" width="3.89" height="7.84" style="fill:#fafafa"></rect><rect x="177.72" y="277.68" width="3.89" height="7.84" style="fill:#fafafa"></rect><rect x="185.5" y="277.68" width="3.89" height="7.84" style="fill:#fafafa"></rect><rect x="193.28" y="277.68" width="3.89" height="7.84" style="fill:#fafafa"></rect><path d="M311.17,296.4V164.32H244.56V298.83A355.39,355.39,0,0,0,311.17,296.4Z" style="fill:#e6e6e6"></path><rect x="249.6" y="169.67" width="8.07" height="9.03" style="fill:#fafafa"></rect><rect x="265.75" y="169.67" width="8.07" height="9.03" style="fill:#fafafa"></rect><rect x="281.9" y="169.67" width="8.07" height="9.03" style="fill:#fafafa"></rect><rect x="298.05" y="169.67" width="8.07" height="9.03" style="fill:#fafafa"></rect><rect x="249.6" y="184.82" width="8.07" height="9.03" style="fill:#fafafa"></rect><rect x="265.75" y="184.82" width="8.07" height="9.03" style="fill:#fafafa"></rect><rect x="281.9" y="184.82" width="8.07" height="9.03" style="fill:#fafafa"></rect><rect x="298.05" y="184.82" width="8.07" height="9.03" style="fill:#fafafa"></rect><rect x="249.6" y="199.96" width="8.07" height="9.03" style="fill:#fafafa"></rect><rect x="265.75" y="199.96" width="8.07" height="9.03" style="fill:#fafafa"></rect><rect x="281.9" y="199.96" width="8.07" height="9.03" style="fill:#fafafa"></rect><rect x="298.05" y="199.96" width="8.07" height="9.03" style="fill:#fafafa"></rect><rect x="249.6" y="215.11" width="8.07" height="9.03" style="fill:#fafafa"></rect><rect x="265.75" y="215.11" width="8.07" height="9.03" style="fill:#fafafa"></rect><rect x="281.9" y="215.11" width="8.07" height="9.03" style="fill:#fafafa"></rect><rect x="298.05" y="215.11" width="8.07" height="9.03" style="fill:#fafafa"></rect><rect x="249.6" y="230.25" width="8.07" height="9.03" style="fill:#fafafa"></rect><rect x="265.75" y="230.25" width="8.07" height="9.03" style="fill:#fafafa"></rect><rect x="281.9" y="230.25" width="8.07" height="9.03" style="fill:#fafafa"></rect><rect x="298.05" y="230.25" width="8.07" height="9.03" style="fill:#fafafa"></rect><rect x="249.6" y="245.39" width="8.07" height="9.03" style="fill:#fafafa"></rect><rect x="265.75" y="245.39" width="8.07" height="9.03" style="fill:#fafafa"></rect><rect x="281.9" y="245.39" width="8.07" height="9.03" style="fill:#fafafa"></rect><rect x="298.05" y="245.39" width="8.07" height="9.03" style="fill:#fafafa"></rect><rect x="249.6" y="260.54" width="8.07" height="9.03" style="fill:#fafafa"></rect><rect x="265.75" y="260.54" width="8.07" height="9.03" style="fill:#fafafa"></rect><rect x="281.9" y="260.54" width="8.07" height="9.03" style="fill:#fafafa"></rect><rect x="298.05" y="260.54" width="8.07" height="9.03" style="fill:#fafafa"></rect><rect x="249.6" y="275.68" width="8.07" height="9.03" style="fill:#fafafa"></rect><rect x="265.75" y="275.68" width="8.07" height="9.03" style="fill:#fafafa"></rect><rect x="281.9" y="275.68" width="8.07" height="9.03" style="fill:#fafafa"></rect><rect x="298.05" y="275.68" width="8.07" height="9.03" style="fill:#fafafa"></rect><rect x="132.36" y="156.19" width="8.08" height="9.03" style="fill:#fafafa"></rect><rect x="132.36" y="171.33" width="8.08" height="9.03" style="fill:#fafafa"></rect><rect x="132.36" y="186.48" width="8.08" height="9.03" style="fill:#fafafa"></rect><rect x="132.36" y="201.62" width="8.08" height="9.03" style="fill:#fafafa"></rect><rect x="132.36" y="216.77" width="8.08" height="9.03" style="fill:#fafafa"></rect><rect x="132.36" y="231.91" width="8.08" height="9.03" style="fill:#fafafa"></rect><rect x="132.36" y="247.05" width="8.08" height="9.03" style="fill:#fafafa"></rect><rect x="132.36" y="262.2" width="8.08" height="9.03" style="fill:#fafafa"></rect><rect x="143.16" y="156.19" width="8.07" height="9.03" style="fill:#fafafa"></rect><rect x="143.16" y="171.33" width="8.07" height="9.03" style="fill:#fafafa"></rect><rect x="143.16" y="186.48" width="8.07" height="9.03" style="fill:#fafafa"></rect><rect x="143.16" y="201.62" width="8.07" height="9.03" style="fill:#fafafa"></rect><rect x="143.16" y="216.77" width="8.07" height="9.03" style="fill:#fafafa"></rect><rect x="143.16" y="231.91" width="8.07" height="9.03" style="fill:#fafafa"></rect><rect x="143.16" y="247.05" width="8.07" height="9.03" style="fill:#fafafa"></rect><rect x="143.16" y="262.2" width="8.07" height="9.03" style="fill:#fafafa"></rect><rect x="227.19" y="98.59" width="8.07" height="9.03" style="fill:#fafafa"></rect><rect x="227.19" y="113.73" width="8.07" height="9.03" style="fill:#fafafa"></rect><rect x="227.19" y="128.88" width="8.07" height="9.03" style="fill:#fafafa"></rect><rect x="227.19" y="144.02" width="8.07" height="9.03" style="fill:#fafafa"></rect><rect x="227.19" y="159.17" width="8.07" height="9.03" style="fill:#fafafa"></rect><rect x="227.19" y="174.31" width="8.07" height="9.03" style="fill:#fafafa"></rect><rect x="227.19" y="189.45" width="8.07" height="9.03" style="fill:#fafafa"></rect><rect x="227.19" y="204.6" width="8.07" height="9.03" style="fill:#fafafa"></rect><rect x="348.41" y="86.5" width="8.07" height="9.03" style="fill:#fafafa"></rect><rect x="348.41" y="101.65" width="8.07" height="9.03" style="fill:#fafafa"></rect><rect x="348.41" y="116.79" width="8.07" height="9.03" style="fill:#fafafa"></rect><rect x="348.41" y="131.93" width="8.07" height="9.03" style="fill:#fafafa"></rect><rect x="348.41" y="147.08" width="8.07" height="9.03" style="fill:#fafafa"></rect><rect x="348.41" y="162.22" width="8.07" height="9.03" style="fill:#fafafa"></rect><rect x="348.41" y="177.37" width="8.07" height="9.03" style="fill:#fafafa"></rect><rect x="348.41" y="192.51" width="8.07" height="9.03" style="fill:#fafafa"></rect><path d="M386.8,286.83a183.8,183.8,0,0,1,27.51,2V156.11H365.7V288.38A170.32,170.32,0,0,1,386.8,286.83Z" style="fill:#e6e6e6"></path><rect x="372.89" y="163.12" width="14.25" height="9.03" style="fill:#fafafa"></rect><rect x="372.89" y="178.26" width="14.25" height="9.03" style="fill:#fafafa"></rect><rect x="372.89" y="193.4" width="14.25" height="9.03" style="fill:#fafafa"></rect><rect x="372.89" y="208.55" width="14.25" height="9.03" style="fill:#fafafa"></rect><rect x="372.89" y="223.69" width="14.25" height="9.03" style="fill:#fafafa"></rect><rect x="372.89" y="238.84" width="14.25" height="9.03" style="fill:#fafafa"></rect><rect x="372.89" y="253.98" width="14.25" height="9.03" style="fill:#fafafa"></rect><rect x="372.89" y="269.12" width="14.25" height="9.03" style="fill:#fafafa"></rect><rect x="391.95" y="163.12" width="14.25" height="9.03" style="fill:#fafafa"></rect><rect x="391.95" y="178.26" width="14.25" height="9.03" style="fill:#fafafa"></rect><rect x="391.95" y="193.4" width="14.25" height="9.03" style="fill:#fafafa"></rect><rect x="391.95" y="208.55" width="14.25" height="9.03" style="fill:#fafafa"></rect><rect x="391.95" y="223.69" width="14.25" height="9.03" style="fill:#fafafa"></rect><rect x="391.95" y="238.84" width="14.25" height="9.03" style="fill:#fafafa"></rect><rect x="391.95" y="253.98" width="14.25" height="9.03" style="fill:#fafafa"></rect><rect x="391.95" y="269.12" width="14.25" height="9.03" style="fill:#fafafa"></rect><path d="M350.38,292.35V200H318v95.55C329.3,294.51,340.09,293.41,350.38,292.35Z" style="fill:#fff"></path><rect x="320.45" y="203.96" width="3.92" height="6.73" style="fill:#e6e6e6"></rect><rect x="328.3" y="203.96" width="3.92" height="6.73" style="fill:#e6e6e6"></rect><rect x="336.15" y="203.96" width="3.92" height="6.73" style="fill:#e6e6e6"></rect><rect x="344" y="203.96" width="3.92" height="6.73" style="fill:#e6e6e6"></rect><rect x="320.45" y="215.25" width="3.92" height="6.73" style="fill:#e6e6e6"></rect><rect x="328.3" y="215.25" width="3.92" height="6.73" style="fill:#e6e6e6"></rect><rect x="336.15" y="215.25" width="3.92" height="6.73" style="fill:#e6e6e6"></rect><rect x="344" y="215.25" width="3.92" height="6.73" style="fill:#e6e6e6"></rect><rect x="320.45" y="226.54" width="3.92" height="6.73" style="fill:#e6e6e6"></rect><rect x="328.3" y="226.54" width="3.92" height="6.73" style="fill:#e6e6e6"></rect><rect x="336.15" y="226.54" width="3.92" height="6.73" style="fill:#e6e6e6"></rect><rect x="344" y="226.54" width="3.92" height="6.73" style="fill:#e6e6e6"></rect><rect x="320.45" y="237.83" width="3.92" height="6.73" style="fill:#e6e6e6"></rect><rect x="328.3" y="237.83" width="3.92" height="6.73" style="fill:#e6e6e6"></rect><rect x="336.15" y="237.83" width="3.92" height="6.73" style="fill:#e6e6e6"></rect><rect x="344" y="237.83" width="3.92" height="6.73" style="fill:#e6e6e6"></rect><rect x="320.45" y="249.13" width="3.92" height="6.73" style="fill:#e6e6e6"></rect><rect x="328.3" y="249.13" width="3.92" height="6.73" style="fill:#e6e6e6"></rect><rect x="336.15" y="249.13" width="3.92" height="6.73" style="fill:#e6e6e6"></rect><rect x="344" y="249.13" width="3.92" height="6.73" style="fill:#e6e6e6"></rect><rect x="320.45" y="260.42" width="3.92" height="6.73" style="fill:#e6e6e6"></rect><rect x="328.3" y="260.42" width="3.92" height="6.73" style="fill:#e6e6e6"></rect><rect x="336.15" y="260.42" width="3.92" height="6.73" style="fill:#e6e6e6"></rect><rect x="344" y="260.42" width="3.92" height="6.73" style="fill:#e6e6e6"></rect><rect x="320.45" y="271.71" width="3.92" height="6.73" style="fill:#e6e6e6"></rect><rect x="328.3" y="271.71" width="3.92" height="6.73" style="fill:#e6e6e6"></rect><rect x="336.15" y="271.71" width="3.92" height="6.73" style="fill:#e6e6e6"></rect><rect x="344" y="271.71" width="3.92" height="6.73" style="fill:#e6e6e6"></rect><rect x="320.45" y="283" width="3.92" height="6.73" style="fill:#e6e6e6"></rect><rect x="328.3" y="283" width="3.92" height="6.73" style="fill:#e6e6e6"></rect><rect x="336.15" y="283" width="3.92" height="6.73" style="fill:#e6e6e6"></rect><rect x="344" y="283" width="3.92" height="6.73" style="fill:#e6e6e6"></rect><rect x="78.36" y="222.05" width="6.87" height="5.65" style="fill:#ebebeb"></rect><rect x="92.1" y="222.05" width="6.87" height="5.65" style="fill:#ebebeb"></rect><rect x="105.84" y="222.05" width="6.87" height="5.65" style="fill:#ebebeb"></rect><rect x="119.58" y="222.05" width="6.87" height="5.65" style="fill:#ebebeb"></rect><rect x="78.36" y="231.52" width="6.87" height="5.65" style="fill:#ebebeb"></rect><rect x="92.1" y="231.52" width="6.87" height="5.65" style="fill:#ebebeb"></rect><rect x="105.84" y="231.52" width="6.87" height="5.65" style="fill:#ebebeb"></rect><rect x="119.58" y="231.52" width="6.87" height="5.65" style="fill:#ebebeb"></rect><rect x="78.36" y="240.99" width="6.87" height="5.65" style="fill:#ebebeb"></rect><rect x="92.1" y="240.99" width="6.87" height="5.65" style="fill:#ebebeb"></rect><rect x="105.84" y="240.99" width="6.87" height="5.65" style="fill:#ebebeb"></rect><rect x="119.58" y="240.99" width="6.87" height="5.65" style="fill:#ebebeb"></rect><rect x="78.36" y="250.46" width="6.87" height="5.65" style="fill:#ebebeb"></rect><rect x="92.1" y="250.46" width="6.87" height="5.65" style="fill:#ebebeb"></rect><rect x="105.84" y="250.46" width="6.87" height="5.65" style="fill:#ebebeb"></rect><rect x="119.58" y="250.46" width="6.87" height="5.65" style="fill:#ebebeb"></rect><rect x="78.36" y="259.93" width="6.87" height="5.65" style="fill:#ebebeb"></rect><rect x="92.1" y="259.93" width="6.87" height="5.65" style="fill:#ebebeb"></rect><rect x="105.84" y="259.93" width="6.87" height="5.65" style="fill:#ebebeb"></rect><rect x="119.58" y="259.93" width="6.87" height="5.65" style="fill:#ebebeb"></rect><rect x="78.36" y="269.4" width="6.87" height="5.65" style="fill:#ebebeb"></rect><rect x="92.1" y="269.4" width="6.87" height="5.65" style="fill:#ebebeb"></rect><rect x="105.84" y="269.4" width="6.87" height="5.65" style="fill:#ebebeb"></rect><rect x="119.58" y="269.4" width="6.87" height="5.65" style="fill:#ebebeb"></rect><rect x="78.36" y="278.87" width="6.87" height="5.65" style="fill:#ebebeb"></rect><rect x="92.1" y="278.87" width="6.87" height="5.65" style="fill:#ebebeb"></rect><rect x="105.84" y="278.87" width="6.87" height="5.65" style="fill:#ebebeb"></rect><rect x="119.58" y="278.87" width="6.87" height="5.65" style="fill:#ebebeb"></rect><path d="M282.18,81.64c2.59,0,6-8.47,6-8.47s-1.29,9,.95,10.33,9.43-4.34,9.43-4.34-5.64,7.18-4.34,9.43,10.33,1,10.33,1-8.47,3.4-8.47,6,8.47,6,8.47,6-9-1.3-10.33,1,4.34,9.43,4.34,9.43-7.18-5.64-9.43-4.35-.95,10.34-.95,10.34-3.4-8.47-6-8.47-6,8.47-6,8.47,1.3-9-.95-10.34-9.43,4.35-9.43,4.35,5.64-7.18,4.34-9.43-10.33-1-10.33-1,8.47-3.4,8.47-6-8.47-6-8.47-6,9,1.29,10.33-1-4.34-9.43-4.34-9.43,7.18,5.64,9.43,4.34.95-10.33.95-10.33S279.58,81.64,282.18,81.64Z" style="fill:#f5f5f5"></path><path d="M292.9,95.63a10.72,10.72,0,0,1-10.73,10.73,10.57,10.57,0,0,1-1.6-.12,10.72,10.72,0,0,1-5.22-2.33l-.39-.34-.37-.35-.35-.37a10.73,10.73,0,0,1-1.91-3c-.06-.14-.12-.28-.17-.42S272,99.16,272,99s-.1-.3-.14-.45a10.86,10.86,0,0,1,0-5.84c0-.15.09-.3.14-.45s.11-.31.17-.47.11-.28.17-.42a10.73,10.73,0,0,1,1.91-3l.35-.37.37-.35.39-.34a11.16,11.16,0,0,1,1.61-1.1l.42-.22a10.81,10.81,0,0,1,3.19-1,10.57,10.57,0,0,1,1.6-.12A10.72,10.72,0,0,1,292.9,95.63Z" style="fill:#fafafa"></path></g><g id="freepik--Shadow--inject-85"><ellipse id="freepik--path--inject-85" cx="250" cy="412.39" rx="193.89" ry="11.32" style="fill:#f5f5f5"></ellipse></g><g id="freepik--Pool--inject-85"><path d="M449.9,284.64v.17h-.38l-1.6,42.77-2,43a59.7,59.7,0,0,1-2.27,12H54.48a59.7,59.7,0,0,1-2.27-12l-2-43-2-42.77h-.64v-.17Z" style="fill:#263238"></path><path d="M449.9,284.64v.17h-.38l-1.6,42.77-2,43a59.7,59.7,0,0,1-2.27,12H54.48a59.7,59.7,0,0,1-2.27-12l-2-43-2-42.77h-.64v-.17Z" style="fill:#fff;opacity:0.8"></path><path d="M48.48,287.81c133.64.12,267.29-.13,400.93,0" style="fill:none;stroke:#263238;stroke-miterlimit:10;stroke-width:0.75px"></path><path d="M49.71,319.35c133,9.1,265.64-9.29,398.61-.17" style="fill:none;stroke:#263238;stroke-miterlimit:10;stroke-width:0.75px"></path><path d="M51.23,350.92c132,8.93,263.68-9.35,395.67-.4" style="fill:none;stroke:#263238;stroke-miterlimit:10;stroke-width:0.75px"></path><path d="M54.48,382.18c129.72.41,259.45.18,389.17.46" style="fill:none;stroke:#263238;stroke-miterlimit:10;stroke-width:0.75px"></path><path d="M60.63,382.4l-.74-.08a355.8,355.8,0,0,0,1.48-47c-.76-5.51-1.13-8.27-1.83-13.78a196.4,196.4,0,0,1,.35-37l.74.11a192.55,192.55,0,0,0-.38,36.8c.72,5.53,1.09,8.29,1.87,13.82A346.31,346.31,0,0,1,60.63,382.4Z" style="fill:#263238"></path><path d="M98.2,382.36h-.74c3.24-32.8-3.26-64.93,0-97.74h.75C94.89,317.44,101.51,349.55,98.2,382.36Z" style="fill:#263238"></path><path d="M135.77,382.36H135c6.11-33.24-6.13-64.47,0-97.74h.74C129.58,317.9,141.93,349.11,135.77,382.36Z" style="fill:#263238"></path><path d="M173.34,382.36h-.75c8.7-33.65-8.74-64,0-97.74h.75C164.55,318.33,182.08,348.7,173.34,382.36Z" style="fill:#263238"></path><path d="M210.9,382.36h-.74c10.94-33.89-11-63.79,0-97.74h.75C199.86,318.57,221.89,348.47,210.9,382.36Z" style="fill:#263238"></path><path d="M248.47,382.36h-.75c12.78-33.87-12.84-63.81-.05-97.74h.74C235.66,318.55,261.21,348.48,248.47,382.36Z" style="fill:#263238"></path><path d="M286,382.36h-.74c10.93-33.88-11-63.79,0-97.74H286C275.08,318.56,296.92,348.48,286,382.36Z" style="fill:#263238"></path><path d="M323.58,382.36h-.74c8.68-33.65-8.73-64,0-97.74h.75C314.91,318.31,332.22,348.72,323.58,382.36Z" style="fill:#263238"></path><path d="M361.14,382.36h-.75c6.1-33.24-6.11-64.47,0-97.74h.74C355.08,317.88,367.18,349.13,361.14,382.36Z" style="fill:#263238"></path><path d="M398.7,382.36H398c3.23-32.8-3.24-64.93,0-97.74h.74C395.52,317.42,401.86,349.57,398.7,382.36Z" style="fill:#263238"></path><path d="M436.25,382.37l-.74,0,.3-8.13c.19-13.16-.14-25.94-1.05-39.08-.26-2.84-.4-4.26-.67-7.1a236.84,236.84,0,0,1,.6-37c.33-2.58.5-3.88.82-6.46l.74.09-.8,6.46a238.6,238.6,0,0,0-.6,36.85l.65,7.09c.89,13.16,1.21,26,1,39.18C436.42,377.49,436.37,379.12,436.25,382.37Z" style="fill:#263238"></path><rect x="47.58" y="262.94" width="402.32" height="21.87" style="fill:#263238"></rect><g style="opacity:0.5"><rect x="47.58" y="262.94" width="402.32" height="21.87" style="fill:#fff"></rect></g><path d="M97.51,342.81v-9.5c3.29,0,6-3.08,6-6.86V243.68c0-3.78-2.68-6.85-6-6.85s-6,3.07-6,6.85V262.4H82V243.68c0-9,6.94-16.35,15.48-16.35S113,234.66,113,243.68v82.77C113,335.47,106,342.81,97.51,342.81Z" style="fill:#263238"></path><path d="M97.51,342.81v-9.5c3.29,0,6-3.08,6-6.86V243.68c0-3.78-2.68-6.85-6-6.85s-6,3.07-6,6.85V262.4H82V243.68c0-9,6.94-16.35,15.48-16.35S113,234.66,113,243.68v82.77C113,335.47,106,342.81,97.51,342.81Z" style="fill:#263238"></path><g style="opacity:0.4"><path d="M97.51,342.81v-9.5c3.29,0,6-3.08,6-6.86V243.68c0-3.78-2.68-6.85-6-6.85s-6,3.07-6,6.85V262.4H82V243.68c0-9,6.94-16.35,15.48-16.35S113,234.66,113,243.68v82.77C113,335.47,106,342.81,97.51,342.81Z" style="fill:#fff"></path></g><rect x="70.54" y="299.87" width="37.69" height="6.85" style="fill:#263238"></rect><g style="opacity:0.5"><rect x="70.54" y="299.87" width="37.69" height="6.85" style="fill:#fff"></rect></g><rect x="70.54" y="322.12" width="37.69" height="6.85" style="fill:#263238"></rect><g style="opacity:0.5"><rect x="70.54" y="322.12" width="37.69" height="6.85" style="fill:#fff"></rect></g><rect x="70.54" y="277.62" width="37.69" height="6.85" style="fill:#263238"></rect><g style="opacity:0.5"><rect x="70.54" y="277.62" width="37.69" height="6.85" style="fill:#fff"></rect></g><path d="M64,342.81v-9.5c3.29,0,6-3.08,6-6.86V243.68c0-3.78-2.68-6.85-6-6.85s-6,3.07-6,6.85V262.4h-9.5V243.68c0-9,6.94-16.35,15.48-16.35s15.48,7.33,15.48,16.35v82.77C79.44,335.47,72.49,342.81,64,342.81Z" style="fill:#263238"></path><g style="opacity:0.6000000000000001"><path d="M64,342.81v-9.5c3.29,0,6-3.08,6-6.86V243.68c0-3.78-2.68-6.85-6-6.85s-6,3.07-6,6.85V262.4h-9.5V243.68c0-9,6.94-16.35,15.48-16.35s15.48,7.33,15.48,16.35v82.77C79.44,335.47,72.49,342.81,64,342.81Z" style="fill:#fff"></path></g></g><g id="freepik--Character--inject-85"><path d="M276.54,270.31l.61,0-.62.07C275.65,270.43,275.59,270.37,276.54,270.31Z" style="fill:#ff8b7b"></path><path d="M282.18,301.29c-2.71.26-4.47-3.93-5.58-8.13v0c-.1-.4-.2-.8-.29-1.21-.06-.2-.1-.41-.15-.61s-.08-.4-.12-.58a0,0,0,0,1,0,0c-.07-.32-.13-.63-.19-.93-.1-.48-.18-.95-.26-1.38-.05-.27-.1-.54-.14-.8s-.11-.66-.15-.94c-.07-.44-.14-.86-.2-1.27-.74-5.75.2-8.66,2.12-14.62,3.89-.48,15.78-3.11,29.1-11.29h0c.88-.54,1.78-1.11,2.68-1.71.39-.26.79-.52,1.21-.77h0c8.15-5.07,21.26-10.17,30.37-10.75,1.47,4.31,1,8,.49,11.09-.43,2.73-.81,5,.19,6.94,1.61,3.13,5.28,4.8,8.9,6.58,0,0,.67,1.91-.35,5.9a24.94,24.94,0,0,1-2.26,4.87c-8.31,7.86-15.28,12-28.35,14.82C311,297.31,299.56,298.35,282.18,301.29Z" style="fill:#ff8b7b"></path><path d="M327.64,253.2l-.32-4a98.28,98.28,0,0,0-12.72,5.39Z" style="opacity:0.2"></path><path d="M327.64,253.2a68.57,68.57,0,0,0-2.41-15,74.26,74.26,0,0,0-2.47-7.33l-.74-1.8c-.27-.59-.52-1.19-.8-1.77s-.55-1.18-.84-1.76c-.14-.29-.28-.58-.43-.87l-.22-.43-.11-.21h0a.29.29,0,0,0,.31,0,.31.31,0,0,0,.07-.09v0s0,0,0,0,0,0,0,0h0l-.07,0-.12.05-.25.09c-1.33.52-2.67,1-4,1.51l-4,1.44c-1.34.5-2.7.94-4,1.41s-2.71.91-4.07,1.35c-2.73.88-5.47,1.72-8.25,2.46l-2.64-5.89c2.42-1.59,4.87-3.06,7.35-4.5,1.23-.72,2.47-1.44,3.72-2.13s2.49-1.41,3.75-2.08l3.76-2c1.27-.66,2.52-1.33,3.79-2l.24-.13.12-.06.06,0,.12-.05c.32-.14.65-.29,1-.41s.68-.22,1-.31.7-.17,1.06-.22a11.53,11.53,0,0,1,4.3.15,11.77,11.77,0,0,1,7.1,4.83l.3.46.16.24.31.5c.21.33.41.66.61,1,.41.66.79,1.34,1.17,2s.73,1.36,1.09,2.05.7,1.38,1,2.08a70,70,0,0,1,3.44,8.68,61.94,61.94,0,0,1,3,18.59Z" style="fill:#ff8b7b"></path><path d="M282.18,239.49c4.55-1,11.38-3.08,12.84-7.51-.71-2.44-.77-3.46-2.11-5.61a20.39,20.39,0,0,0-15.78,9.35C279.76,237.83,279.55,237.38,282.18,239.49Z" style="fill:#ff8b7b"></path><path d="M330.51,285.13,330,269.18c3.89.19,7.9.24,11.91.33l12.08.17c8.09.14,16.16.25,24.42.78l1.55.11,1.57.14,1.58.14,1.6.2c.53.06,1.09.14,1.54.18a8.77,8.77,0,0,0,1.45,0,20.39,20.39,0,0,1,2.91-.18c1.92.17,3.85.43,5.79.58,1,.1,1.95.16,2.93.23s1.95.15,2.93.22c7.84.51,15.83.72,23.74.83l.56,5.12c-2,.44-4,.83-6,1.17l-3,.49c-1,.15-2,.3-3,.43-4,.56-8.1,1-12.19,1.29-2,.16-4.1.27-6.16.33-1,0-2.06.08-3.1.08h-1.55c-.52,0-1,0-1.56,0a17.31,17.31,0,0,1-3.08-.61,14,14,0,0,0-1.55-.27c-.55-.06-1-.06-1.45-.07l-1.39-.05h-2.86l-1.45,0c-3.88.08-7.82.31-11.76.61l-20.94,2h0l-2.86.32Z" style="fill:#ff8b7b"></path><polygon points="426.25 272.5 438.08 272.26 448.54 274.72 448.61 277.95 432.55 278.28 425.97 278.41 426.25 272.5" style="fill:#ff8b7b"></polygon><path d="M215.71,276.62l-10.7.22s-11.41-5.56-20.31-7c-21.36-3.5-41.18-5.12-46.95-8.27l-6,10.36c24.14,7.52,38.92,10.5,62.86,18.62,17.37,5.89,28.88,3.06,37.48,2-1.21-4.94-2.66-12.87-5.21-17.27Z" style="fill:#ff8b7b"></path><path d="M211.47,297.1h0A138.58,138.58,0,0,0,163.64,305c-5.08,1.79-10.93,4-17.6,6.58-1.59,2.55.64,4.87-.95,7.42,0,0,39.18-1.14,56.6-5.75,8.37-2.22,32.27-5.53,40.89-6.3,15.48-7.89.31-20-7.91-19.83Z" style="fill:#ff8b7b"></path><path d="M148.42,310.84s-6.27-3.24-9.52-2.14-20.75,13.48-20.75,13.48-1.1,2.9-.16,3.51,29.84-7,29.84-7Z" style="fill:#ff8b7b"></path><path d="M276.12,277.66s-16.41-3.89-26.78.82-29,15.14-29,15.14l2.14,17.82,59.67-10.15S276.62,298.53,276.12,277.66Z" style="fill:#407BFF"></path><g style="opacity:0.2"><path d="M221.26,301.06l-.89-7.44,0,0c.93-.52,28.62-5.78,28.62-5.78l27.07,7.46Z"></path></g><path d="M277.18,270.27S262.35,265,251.36,268s-29.71,7.87-29.71,7.87L220.39,295s21.2,3.79,40.17,2.13l18-1.76S274.52,274.92,277.18,270.27Z" style="fill:#407BFF"></path><path d="M141.73,263s-7.31-6.6-10.52-5.4S108,276.52,108,276.52s.28,2.72,1.25,3.3,24.07-7.41,24.07-7.41Z" style="fill:#ff8b7b"></path><path d="M347.61,269.59l.28.56a10.93,10.93,0,0,0,12.54,5.61L380,270.57Z" style="opacity:0.2"></path><path d="M355.34,257c-4.86,2.09-14,5.07-18.14,2.24a16,16,0,0,0-2.13,13.21c1.08,4.35,4.18,3.92,5.66,2.58.09-5.95,4.33-6.71,8.5-6.56Z" style="fill:#ff8b7b"></path><path d="M276.6,293.16v0c-.1-.4-.2-.8-.29-1.21-.06-.2-.1-.41-.15-.61s-.08-.4-.12-.58a0,0,0,0,1,0,0c-.07-.32-.13-.63-.19-.93-.1-.48-.18-.95-.26-1.38-.05-.27-.1-.54-.14-.8s-.11-.66-.15-.94c-.07-.44-.14-.86-.2-1.27a26.66,26.66,0,0,1,.35-11.21c.07-.32.15-.65.25-1,.24-.89.52-1.83.85-2.85a79.84,79.84,0,0,0,29.77-10.86h0c.88-.54,1.78-1.11,2.68-1.71.39-.26.79-.52,1.21-.77h0a54,54,0,0,0,5.92,1.34l1.49.22c7.76,1.07,15.46.38,23.45-1.22-.43,2.73-3.24,12-2.24,13.94,1.61,3.13,11.33-.42,11.33-.42s.67,1.91-.35,5.9a24.94,24.94,0,0,1-2.26,4.87c-9.33,12.26-12.7,13.17-28.35,14.82-8.16.86-19.64,1.9-37,4.84C279.48,301.75,277.71,297.45,276.6,293.16Z" style="fill:#407BFF"></path><path d="M352.85,261.71l-3.62,6.78a16.44,16.44,0,0,0-2.91.12c-.17-2.24,1.54-5.72,3.76-6.43A7.72,7.72,0,0,1,352.85,261.71Z" style="opacity:0.2"></path><path d="M373.36,269.62c-2.08,2-7.33,4-7.38-.2S376.93,266.21,373.36,269.62Z" style="fill:#263238"></path><path d="M361.34,253.54c-6.5,2.73-10.45,4-12.66,8.53-3.32,6.83,2.67,14,9.88,13.23,6.49-.66,16-5,16.34-12.42A9.73,9.73,0,0,0,361.34,253.54Z" style="fill:#ff8b7b"></path><path d="M357.23,253.37l.79-.62a12.13,12.13,0,0,1,1.85,4.35,14.47,14.47,0,0,0,1.25,3.36l-.87.5a15.34,15.34,0,0,1-1.34-3.6A11.08,11.08,0,0,0,357.23,253.37Z" style="fill:#407BFF"></path><path d="M370.74,267.88c3.37,3.59,7-5,6.24-9.89-1.54-9.76-10.16-10.48-14-8.18-4.11-3.15-11.57,2.51-13.57,9.34,5.17-1.93,16.13-3.91,16.13-3.91C367,260.82,369,266.06,370.74,267.88Z" style="fill:#263238"></path><path d="M354.9,252.91a6.62,6.62,0,0,0-2.57,4.4c-.29,2.33,1.88,3.16,3.91,2.25,1.83-.83,4.18-3,3.54-5.24A3,3,0,0,0,354.9,252.91Z" style="fill:#ff8b7b"></path><path d="M353.36,258.14a.59.59,0,0,1-.6-.57.6.6,0,0,1,.58-.6.58.58,0,0,1,.59.58A.57.57,0,0,1,353.36,258.14Z" style="fill:#407BFF"></path><path d="M373,269.47a3.62,3.62,0,0,0,.09-1.67c-.6-5-3.95-11.42-9-11.3-4.14.1-9.61,1.17-12.47-1.81-.3-.3-.07-.91.19-1.24a16.23,16.23,0,0,1,12.8-6.18,14.06,14.06,0,0,1,12,7.3,12.47,12.47,0,0,1-1.6,13.75C374,269.47,372.8,270,373,269.47Z" style="fill:#407BFF"></path><path d="M375.28,262.76s-1.84-1.53-1.84-1.35v2.33l1.55,1.35Z" style="fill:#fff;opacity:0.30000000000000004"></path><path d="M363.1,264.25c-.54.19-.88.63-.75,1s.67.49,1.21.3.88-.63.75-1S363.64,264.06,363.1,264.25Z" style="fill:#263238"></path><path d="M356.16,270.4c-.54.19-.88.63-.75,1s.67.49,1.21.3.88-.63.75-1S356.7,270.21,356.16,270.4Z" style="fill:#263238"></path><path d="M365.3,270.36c-.54.19-.88.63-.75,1s.67.49,1.21.3.88-.63.75-1S365.84,270.17,365.3,270.36Z" style="fill:#263238"></path><path d="M364.71,265.84a.85.85,0,0,1-.39-1.08.58.58,0,0,0-.58.26c-.11.21.07.51.26.66A1,1,0,0,0,364.71,265.84Z" style="fill:#263238"></path><path d="M367.17,271.76a.83.83,0,0,1-.66-.93.56.56,0,0,0-.49.4c-.06.24.2.48.42.58A.93.93,0,0,0,367.17,271.76Z" style="fill:#263238"></path><path d="M364.33,268.51a19.91,19.91,0,0,0-3.52,4.18,3.36,3.36,0,0,1-1.36-2.41Z" style="fill:#ff5652"></path><path d="M364.4,261.68a.34.34,0,0,0,.23.25,2.68,2.68,0,0,1,1.79,1.67.35.35,0,0,0,.42.23.33.33,0,0,0,.23-.41,3.34,3.34,0,0,0-2.24-2.13.34.34,0,0,0-.43.39Z" style="fill:#263238"></path><path d="M368.35,272.26a.35.35,0,0,0,.57.17,3.31,3.31,0,0,0,1-2.91.35.35,0,0,0-.4-.26.34.34,0,0,0-.26.4,2.57,2.57,0,0,1-.79,2.29A.36.36,0,0,0,368.35,272.26Z" style="fill:#263238"></path><polygon points="345.49 283.46 348.77 280.46 366.43 281.48 345.49 283.46" style="opacity:0.2"></polygon><path d="M364.48,270.28c.3-.13.52-.35.81-.47a5.56,5.56,0,0,0-1-2.11,1.06,1.06,0,0,0-.8.27A4.67,4.67,0,0,1,364.48,270.28Z" style="fill:#407BFF"></path><path d="M362.35,261.67c-.22-.47-1.05-.83-1.27-1.3-.6.12-.66.12-1,.63l.46,1.25Z" style="fill:#fff"></path><path d="M365.64,266.52a4.33,4.33,0,0,0-3-5.07c-.64-.2-1.66-.23-2.06.29-1.48,1.92.95,7.18,3.26,6.69A2.58,2.58,0,0,0,365.64,266.52Z" style="fill:#263238"></path><path d="M368.14,273.25a4.21,4.21,0,0,0-.51-3.12,2.52,2.52,0,0,0-3.49-.7c-1.84,1.18-.09,6.22,2.21,5.73A2.59,2.59,0,0,0,368.14,273.25Z" style="fill:#263238"></path><path d="M361.78,266.78a4.32,4.32,0,0,1-.41-.77c0-.1-.09-.2-.12-.3-.49-1.39-.25-2.71.57-3.06s2.09.53,2.72,2a3.88,3.88,0,0,1,.21.63,4.06,4.06,0,0,1,.15,1.16,1.64,1.64,0,0,1-.81,1.56C363.39,268.32,362.44,267.79,361.78,266.78Z" style="opacity:0.2"></path><path d="M364.89,273.8a3.33,3.33,0,0,1-.68-1.06.13.13,0,0,1,0-.05c-.51-1.28-.25-2.6.61-3s2,.38,2.58,1.68a3.5,3.5,0,0,1,.26.94,2.73,2.73,0,0,1-.09,1.19,1.33,1.33,0,0,1-.75.89A1.75,1.75,0,0,1,364.89,273.8Z" style="opacity:0.2"></path><path d="M361.78,266.78a4.32,4.32,0,0,1-.41-.77c0-.1-.09-.2-.12-.3v-.06l3.51-.35a4.06,4.06,0,0,1,.15,1.16Z" style="fill:#fff;opacity:0.2"></path><path d="M364.89,273.8a3.33,3.33,0,0,1-.68-1.06.13.13,0,0,1,0-.05l3.45-.35a2.73,2.73,0,0,1-.09,1.19Z" style="fill:#fff;opacity:0.2"></path><path d="M221.28,281.53c14.84-4.53,29.32-8.56,43.45-8.06,1.94.07,3.91.22,5.82.37,1.61.13,3.24.27,4.88.34l.91.05c1.51,0,3,0,4.52,0,12.43-.7,26.09-8.62,36.76-15.63l-1.49-.22c-10.41,6.77-23.48,14.19-35.33,14.86-1.46.08-2.92.07-4.38,0l-.74,0c-1.7-.08-3.39-.21-5.05-.34-1.92-.15-3.9-.31-5.86-.38-14.17-.49-28.63,3.48-43.42,8Z" style="fill:#fff"></path></g><g id="freepik--Water--inject-85"><path d="M410.39,262.94c-19.34,0-38.58,17.76-60.55,17.76-23,0-43.48-13.95-68.5-13.95-31.34,0-52,13.95-86.5,13.95-30.83,0-49.84-13.86-80.5-13.86-29,0-66.5,9.69-66.5,9.69s37.5-13.8,66.5-13.8c30.66,0,49.67,12,80.5,12,34.5,0,55.16-15.84,86.5-15.84,25,0,45.53,15.84,68.5,15.84,22,0,37-15.84,56.34-15.84,18.66,0,43.72,15.84,43.72,15.84S429.05,262.94,410.39,262.94Z" style="fill:#407BFF"></path><g style="opacity:0.30000000000000004"><path d="M410.39,262.94c-19.34,0-38.58,17.76-60.55,17.76-23,0-43.48-13.95-68.5-13.95-31.34,0-52,13.95-86.5,13.95-30.83,0-49.84-13.86-80.5-13.86-29,0-66.5,9.69-66.5,9.69s37.5-13.8,66.5-13.8c30.66,0,49.67,12,80.5,12,34.5,0,55.16-15.84,86.5-15.84,25,0,45.53,15.84,68.5,15.84,22,0,37-15.84,56.34-15.84,18.66,0,43.72,15.84,43.72,15.84S429.05,262.94,410.39,262.94Z" style="fill:#fff"></path></g><path d="M449.9,274.71l-.06,1.71-.31,8.22v.17l-1.6,42.77-2,43a59.7,59.7,0,0,1-2.27,12C439.67,396,431.3,406.22,421,411a22.48,22.48,0,0,1-5.21,1.61c-4.48.84-9.69,1.47-15.79,2l-1.4.12c-28.46,2.54-60,6-116.62,7-10.13.19-21.05.31-32.91.32h-3.88c-15.26,0-29.77-.28-43.48-.74-1.79-.05-3.56-.11-5.3-.18-19.08-.71-36.58-1.77-52.38-2.9h0c-22.12-1.58-40.92-3.32-56.13-4.49a31.71,31.71,0,0,1-13.19-4.08c-9.17-5.17-16.54-14.82-20.2-27.07a59.7,59.7,0,0,1-2.27-12l-2-43-2-42.77v-.17l-.38-8.11h0l.21,0,.21-.05,12.59-2.88.36-.08L93.73,266a24.56,24.56,0,0,1,4.52-.6l11.65-.45,4.95-.19a24.22,24.22,0,0,1,5,.32L172.12,274l24.56,4.17a24.51,24.51,0,0,0,9.31-.23l43.08-9.46,25-5.49,1.75-.38a24.43,24.43,0,0,1,12,.38L326,274l3.55,1a69,69,0,0,0,40.33-.63,24.89,24.89,0,0,0,4.94-2.22l6.24-3.66a53.34,53.34,0,0,1,7.16-3.52,50.91,50.91,0,0,1,5.84-2,56.38,56.38,0,0,1,40.27,4l9.64,4.84,0,0,5.82,2.92,0,0Z" style="fill:#407BFF;opacity:0.30000000000000004"></path><circle cx="150.66" cy="337.08" r="3.43" style="fill:#fff;opacity:0.4"></circle><circle cx="277.15" cy="290.5" r="3.43" style="fill:#fff;opacity:0.4"></circle><circle cx="141.73" cy="290.5" r="3.43" style="fill:#fff;opacity:0.4"></circle><circle cx="157.97" cy="327.44" r="1.72" style="fill:#fff;opacity:0.4"></circle><path d="M279.13,278a1.85,1.85,0,1,1-1.85-1.85A1.85,1.85,0,0,1,279.13,278Z" style="fill:#fff;opacity:0.4"></path><circle cx="271.17" cy="283.46" r="1.72" style="fill:#fff;opacity:0.4"></circle><path d="M374.55,314.9a5.43,5.43,0,1,1,5.43-5.43A5.43,5.43,0,0,1,374.55,314.9Z" style="fill:#fff;opacity:0.4"></path><circle cx="394.31" cy="309.68" r="2.92" style="fill:#fff;opacity:0.4"></circle><circle cx="385.68" cy="300.02" r="2.71" style="fill:#fff;opacity:0.4"></circle><circle cx="147.23" cy="285.13" r="1.72" style="fill:#fff;opacity:0.4"></circle><circle cx="131.75" cy="280.7" r="1.72" style="fill:#fff;opacity:0.4"></circle></g><g id="freepik--Splash--inject-85"><path d="M170.15,250.62a3.18,3.18,0,0,0-2.86-4,15,15,0,0,0-9.63,2.62c.4-1.26,1.59-2.08,2.46-3.08s1.41-2.64.48-3.58a3.15,3.15,0,0,0-2.43-.6,29.29,29.29,0,0,0-14.93,5.49c.92-1.88,1.86-3.87,1.36-6a3.46,3.46,0,0,0-2.28-2.57c-1.71-.49-3.07.71-4.16,1.88a40.6,40.6,0,0,0-7.33,11.08,29.27,29.27,0,0,1,6.81-3.9,2.13,2.13,0,0,1,1.86-.18c.84.47.69,1.71.39,2.62s-.54,2.1.22,2.68a2.29,2.29,0,0,0,1.77.22c2.78-.41,10-5.29,10.73,1.83.16,1.49,2,2.24,3.47,2.07a29,29,0,0,0,10.23-3.1,9.69,9.69,0,0,0,3.44-2.66A2.51,2.51,0,0,0,170.15,250.62Z" style="fill:#407BFF"></path><circle cx="182.62" cy="247.75" r="2.25" style="fill:#407BFF"></circle><circle cx="156.25" cy="234.34" r="2.16" style="fill:#407BFF"></circle><path d="M171.37,242.38a1.08,1.08,0,1,1-1.08-1.08A1.07,1.07,0,0,1,171.37,242.38Z" style="fill:#407BFF"></path><g style="opacity:0.4"><path d="M170.15,250.62a3.18,3.18,0,0,0-2.86-4,15,15,0,0,0-9.63,2.62c.4-1.26,1.59-2.08,2.46-3.08s1.41-2.64.48-3.58a3.15,3.15,0,0,0-2.43-.6,29.29,29.29,0,0,0-14.93,5.49c.92-1.88,1.86-3.87,1.36-6a3.46,3.46,0,0,0-2.28-2.57c-1.71-.49-3.07.71-4.16,1.88a40.6,40.6,0,0,0-7.33,11.08,29.27,29.27,0,0,1,6.81-3.9,2.13,2.13,0,0,1,1.86-.18c.84.47.69,1.71.39,2.62s-.54,2.1.22,2.68a2.29,2.29,0,0,0,1.77.22c2.78-.41,10-5.29,10.73,1.83.16,1.49,2,2.24,3.47,2.07a29,29,0,0,0,10.23-3.1,9.69,9.69,0,0,0,3.44-2.66A2.51,2.51,0,0,0,170.15,250.62Z" style="fill:#fff"></path><circle cx="182.62" cy="247.75" r="2.25" style="fill:#fff"></circle><circle cx="156.25" cy="234.34" r="2.16" style="fill:#fff"></circle><path d="M171.37,242.38a1.08,1.08,0,1,1-1.08-1.08A1.07,1.07,0,0,1,171.37,242.38Z" style="fill:#fff"></path></g></g></svg>
